<svg xmlns:xlink="http://www.w3.org/1999/xlink" xmlns="http://www.w3.org/2000/svg" xml:space="preserve" id="Livello_1" x="0" y="0" style="enable-background:new 0 0 511.87 512; opacity: 1;" version="1.1" viewBox="0 0 511.87 512" width="20"  height="20" ><style>.st0{fill:#7a2181}</style><path d="M275.75 233.21c-47.34 0-86.1 36.74-89.33 83.26v2.05h-.12c-.07 1.41-.1 2.82-.1 4.24 0 49.46 40.09 89.55 89.55 89.55 49.46 0 89.55-40.09 89.55-89.55 0-49.45-40.09-89.55-89.55-89.55z" class="st0"/><path d="M87.64 323.83c0-3.08.08-6.15.22-9.19V.59C38.46 5.92 0 47.74 0 98.56v314.89c0 52.75 41.45 95.82 93.55 98.43 1.66.08 3.33.13 5.01.13v-.13h.74v.12c1.68 0 3.35-.04 5.01-.13h166.54c-101.63-2.6-183.21-85.79-183.21-188.04z" class="st0"/><path d="M413.31 0H98.56c-1.96 0-3.9.07-5.84.19 52.17 2.53 93.7 45.63 93.7 98.44v59.62c26.57-14.37 57-22.52 89.33-22.52 103.89 0 188.11 84.22 188.11 188.11 0 102.25-81.58 185.45-183.21 188.05h126.92c1.66.08 3.33.13 5.01.13v-.13h.74v.11c1.68 0 3.35-.04 5.01-.13 52.11-2.61 93.55-45.68 93.55-98.43V98.56C511.87 44.13 467.75 0 413.31 0z" style="fill:#2f6881"/><path d="M463.86 323.83c0-103.89-84.22-188.11-188.11-188.11-32.33 0-62.75 8.16-89.33 22.52V98.62c0-52.8-41.52-95.9-93.7-98.44-1.63.1-3.25.23-4.86.4v314.04c-.15 3.04-.22 6.11-.22 9.19 0 102.25 81.58 185.45 183.21 188.05h9.81c101.62-2.59 183.2-85.78 183.2-188.03zm-188.11 88.49c-49.46 0-89.55-40.09-89.55-89.55 0-1.42.04-2.83.1-4.24h.12v-2.05c3.23-46.52 41.99-83.26 89.33-83.26 49.46 0 89.55 40.09 89.55 89.55 0 49.45-40.09 89.55-89.55 89.55z" style="fill:#fff"/></svg>