<svg xmlns:xlink="http://www.w3.org/1999/xlink" xmlns="http://www.w3.org/2000/svg" xml:space="preserve" id="Livello_1" x="0" y="0" style="enable-background:new 0 0 890.13 180" version="1.1" viewBox="0 0 890.13 180" width="890.13"  height="180" ><style>.st0{fill:#7a2181}.st3{fill:#151515}</style><path d="M96.94 81.99c-16.64 0-30.27 12.92-31.4 29.27v.72h-.04c-.02.49-.04.99-.04 1.49 0 17.39 14.1 31.48 31.48 31.48 17.39 0 31.48-14.1 31.48-31.48.01-17.39-14.09-31.48-31.48-31.48z" class="st0"/><path d="M30.81 113.84c0-1.08.03-2.16.08-3.23V.21C13.52 2.08 0 16.78 0 34.65V145.35c0 18.55 14.57 33.69 32.89 34.61.58.03 1.17.04 1.76.04v-.04h.26v.04c.59 0 1.18-.02 1.76-.04h58.55c-35.73-.92-64.41-30.17-64.41-66.12z" class="st0"/><path d="M145.31 0H34.65c-.69 0-1.37.03-2.05.07 18.34.89 32.94 16.04 32.94 34.61v20.96c9.34-5.05 20.04-7.92 31.4-7.92 36.52 0 66.13 29.61 66.13 66.13 0 35.95-28.68 65.2-64.41 66.11h44.62c.58.03 1.17.04 1.76.04v-.04h.26v.04c.59 0 1.18-.02 1.76-.04 18.32-.92 32.89-16.06 32.89-34.61V34.65C179.96 15.51 164.44 0 145.31 0z" style="fill:#2f6881"/><path d="M163.08 113.84c0-36.52-29.61-66.13-66.13-66.13-11.37 0-22.06 2.87-31.4 7.92V34.67C65.55 16.11 50.95.95 32.61.06c-.57.03-1.14.08-1.71.14v110.41c-.05 1.07-.08 2.15-.08 3.23 0 35.95 28.68 65.2 64.41 66.11h3.45c35.71-.91 64.4-30.16 64.4-66.11zm-66.14 31.12c-17.39 0-31.48-14.1-31.48-31.48 0-.5.01-1 .04-1.49h.04v-.72C66.67 94.91 80.3 82 96.94 82c17.39 0 31.48 14.1 31.48 31.48.01 17.38-14.09 31.48-31.48 31.48z" style="fill:#fff"/><path d="M315.58 6.23v102.34c0 13.15 10.36 23.92 23.34 24.6V30.83c.01-13.15-10.35-23.93-23.34-24.6zM253.71 36c-8.06 0-16.04 2.01-23.08 5.82l-2.02 1.09V24.78c0-13.23-10.4-24.07-23.45-24.78v82.24c-.04.79-.06 1.59-.06 2.38 0 26.8 21.81 48.61 48.61 48.61s48.61-21.81 48.61-48.61S280.52 36 253.71 36zm0 73.49c-13.87 0-25.16-11.29-25.16-25.16 0-.4.01-.8.03-1.19l.06-1.3h.03c1.26-12.77 12.12-22.67 25.04-22.67 13.87 0 25.16 11.29 25.16 25.16s-11.28 25.16-25.16 25.16zM670.19 82.17V0c-13.05.71-23.45 11.56-23.45 24.78v18.13l-2.02-1.09A48.742 48.742 0 0 0 621.64 36c-26.8 0-48.61 21.81-48.61 48.61s21.81 48.61 48.61 48.61 48.61-21.81 48.61-48.61c0-.78-.02-1.58-.06-2.38v-.06zm-48.55 27.32c-13.87 0-25.16-11.29-25.16-25.16s11.29-25.16 25.16-25.16c12.92 0 23.78 9.9 25.04 22.67l.01.09c.02.21.04.42.05.64l.03.58c.02.39.03.79.03 1.19 0 13.87-11.29 25.15-25.16 25.15zM766.13 50.76c-4.43-4.43-9.6-7.91-15.35-10.35a48.044 48.044 0 0 0-18.81-3.8 48.08 48.08 0 0 0-18.81 3.8 47.965 47.965 0 0 0-15.35 10.35c-4.43 4.43-7.91 9.6-10.35 15.35a48.044 48.044 0 0 0-3.8 18.81c0 6.52 1.28 12.84 3.8 18.81a47.965 47.965 0 0 0 10.35 15.35c4.43 4.43 9.6 7.91 15.35 10.35 4.81 2.03 9.89 3.27 15.09 3.66 1.23.09 2.49.14 3.72.14 6.52 0 12.84-1.28 18.81-3.8a47.965 47.965 0 0 0 15.35-10.35 48.67 48.67 0 0 0 6.12-7.47c-4.74-4.34-10.85-6.71-17.31-6.71a25.415 25.415 0 0 0-12.06 3l-.06.03a25.212 25.212 0 0 1-10.84 2.43c-8.78 0-16.83-4.45-21.53-11.9l-1.32-2.1h59.72c6.31 0 11.43-5.13 11.43-11.44 0-6.52-1.28-12.84-3.8-18.81a48.403 48.403 0 0 0-10.35-15.35zm-57.01 22.73 1.32-2.1c4.7-7.45 12.75-11.9 21.53-11.9 8.78 0 16.83 4.45 21.53 11.9l1.32 2.1h-45.7zM434.79 50.76c-4.43-4.43-9.6-7.91-15.35-10.35-5.96-2.52-12.29-3.8-18.81-3.8s-12.84 1.28-18.81 3.8a48.128 48.128 0 0 0-15.35 10.35c-4.43 4.43-7.91 9.6-10.35 15.35-2.52 5.96-3.8 12.29-3.8 18.81s1.28 12.84 3.8 18.81a48.128 48.128 0 0 0 10.35 15.35c4.43 4.43 9.6 7.91 15.35 10.35 4.81 2.03 9.89 3.27 15.09 3.66 1.23.09 2.48.14 3.72.14 6.52 0 12.84-1.28 18.81-3.8a47.965 47.965 0 0 0 15.35-10.35 48.67 48.67 0 0 0 6.12-7.47c-4.74-4.34-10.85-6.71-17.31-6.71a25.415 25.415 0 0 0-12.06 3l-.06.03a25.212 25.212 0 0 1-10.84 2.43c-8.78 0-16.83-4.45-21.53-11.9l-1.32-2.1h59.72c6.31 0 11.43-5.13 11.43-11.44 0-6.52-1.28-12.84-3.8-18.81-2.43-5.75-5.92-10.91-10.35-15.35zm-57.01 22.73 1.32-2.1c4.7-7.45 12.75-11.9 21.53-11.9s16.83 4.45 21.53 11.9l1.32 2.1h-45.7zM886.32 66.11a47.965 47.965 0 0 0-10.35-15.35c-4.43-4.43-9.6-7.91-15.35-10.35-5.96-2.52-12.29-3.8-18.81-3.8s-12.84 1.28-18.81 3.8a48.128 48.128 0 0 0-15.35 10.35c-4.43 4.43-7.91 9.6-10.35 15.35-2.52 5.96-3.8 12.29-3.8 18.81s1.28 12.84 3.8 18.81a48.128 48.128 0 0 0 10.35 15.35c4.43 4.43 9.6 7.91 15.35 10.35 4.81 2.03 9.89 3.27 15.09 3.66 1.23.09 2.48.14 3.72.14 6.52 0 12.84-1.28 18.81-3.8a47.965 47.965 0 0 0 15.35-10.35 48.67 48.67 0 0 0 6.12-7.47c-4.74-4.34-10.85-6.71-17.31-6.71a25.415 25.415 0 0 0-12.06 3l-.06.03a25.212 25.212 0 0 1-10.84 2.43c-8.78 0-16.83-4.45-21.53-11.9l-1.32-2.1h59.72c6.31 0 11.44-5.13 11.44-11.44 0-6.52-1.28-12.84-3.81-18.81zm-67.35 7.38 1.32-2.1c4.7-7.45 12.75-11.9 21.53-11.9 8.78 0 16.83 4.45 21.53 11.9l1.32 2.1h-45.7zM509.81 37.36c-26.7 0-48.51 21.72-48.61 48.42l-.01 1.36h-.18v46.08h23.61V84.41h.1c.44-6.11 3.06-11.79 7.47-16.11 4.73-4.65 10.99-7.2 17.62-7.2s12.89 2.56 17.62 7.2c4.72 4.64 7.4 10.84 7.53 17.45l.03 1.39h-.18v46.08h23.61V85.78c-.1-26.7-21.91-48.42-48.61-48.42zM229.07 179.7l-.04-18.83-9.34 15.69h-1.7l-9.34-15.58v18.72h-3.55v-25.85h3.03l10.78 18.17 10.64-18.17h3.03l.04 25.85h-3.55zM259.42 173.24h-13.74l-2.84 6.46h-3.8l11.71-25.85h3.66l11.74 25.85h-3.88l-2.85-6.46zm-1.29-2.95-5.58-12.67-5.58 12.67h11.16zM289.85 179.7l-5.58-7.94c-.52.04-1.07.07-1.62.07h-6.39v7.87h-3.69v-25.85h10.08c6.72 0 10.78 3.4 10.78 9.01 0 3.99-2.07 6.87-5.69 8.16l6.13 8.68h-4.02zm-.11-16.83c0-3.69-2.47-5.8-7.2-5.8h-6.28v11.63h6.28c4.73 0 7.2-2.14 7.2-5.83zM310.42 168.22l-4.73 4.8v6.68H302v-25.85h3.69v14.44l14.03-14.44h4.21l-11.04 11.63 11.74 14.22h-4.32l-9.89-11.48zM349.9 176.49v3.21h-18.76v-25.85h18.24v3.21h-14.55V165h12.96v3.14h-12.96v8.35h15.07zM363.6 157.07h-8.86v-3.21h21.38v3.21h-8.86v22.64h-3.66v-22.64zM382.73 153.85h3.69v25.85h-3.69v-25.85zM418.99 153.85v25.85h-3.03l-15.51-19.28v19.28h-3.69v-25.85h3.03l15.51 19.28v-19.28h3.69zM447.24 166.63h3.55v10.08c-2.58 2.18-6.17 3.29-9.79 3.29-7.94 0-13.77-5.58-13.77-13.22 0-7.64 5.83-13.22 13.85-13.22 4.1 0 7.57 1.37 9.93 3.99l-2.29 2.29c-2.14-2.07-4.58-2.99-7.5-2.99-5.98 0-10.3 4.17-10.3 9.93 0 5.69 4.32 9.93 10.27 9.93 2.18 0 4.21-.48 6.06-1.66v-8.42zM470.84 166.78c0-7.57 5.83-13.22 13.77-13.22 7.87 0 13.7 5.61 13.7 13.22S492.48 180 484.61 180c-7.94 0-13.77-5.65-13.77-13.22zm23.78 0c0-5.72-4.28-9.93-10.01-9.93-5.8 0-10.08 4.21-10.08 9.93s4.28 9.93 10.08 9.93c5.73 0 10.01-4.21 10.01-9.93zM527.41 162.87c0 5.61-4.06 9.01-10.78 9.01h-6.39v7.83h-3.69v-25.85h10.08c6.72-.01 10.78 3.39 10.78 9.01zm-3.69 0c0-3.69-2.47-5.8-7.2-5.8h-6.28v11.6h6.28c4.73-.01 7.2-2.11 7.2-5.8zM554.19 176.49v3.21h-18.76v-25.85h18.24v3.21h-14.55V165h12.96v3.14h-12.96v8.35h15.07zM580.04 179.7l-5.58-7.94c-.52.04-1.07.07-1.62.07h-6.39v7.87h-3.69v-25.85h10.08c6.72 0 10.78 3.4 10.78 9.01 0 3.99-2.07 6.87-5.69 8.16l6.13 8.68h-4.02zm-.11-16.83c0-3.69-2.47-5.8-7.2-5.8h-6.28v11.63h6.28c4.72 0 7.2-2.14 7.2-5.83zM608.66 173.24h-13.74l-2.84 6.46h-3.8l11.71-25.85h3.66l11.74 25.85h-3.88l-2.85-6.46zm-1.3-2.95-5.58-12.67-5.58 12.67h11.16zM625.64 157.07h-8.86v-3.21h21.38v3.21h-8.86v22.64h-3.66v-22.64zM644.77 153.85h3.69v25.85h-3.69v-25.85zM681.04 153.85v25.85h-3.03l-15.51-19.28v19.28h-3.69v-25.85h3.03l15.51 19.28v-19.28h3.69zM709.29 166.63h3.55v10.08c-2.59 2.18-6.17 3.29-9.79 3.29-7.94 0-13.77-5.58-13.77-13.22 0-7.64 5.83-13.22 13.85-13.22 4.1 0 7.57 1.37 9.93 3.99l-2.29 2.29c-2.14-2.07-4.58-2.99-7.5-2.99-5.98 0-10.3 4.17-10.3 9.93 0 5.69 4.32 9.93 10.27 9.93 2.18 0 4.21-.48 6.06-1.66v-8.42zM732.63 176.75l1.37-2.88c1.92 1.74 5.21 2.99 8.53 2.99 4.47 0 6.39-1.74 6.39-3.99 0-6.31-15.66-2.33-15.66-11.93 0-3.99 3.1-7.39 9.9-7.39 3.03 0 6.17.81 8.31 2.29l-1.22 2.95c-2.25-1.44-4.8-2.1-7.09-2.1-4.39 0-6.28 1.85-6.28 4.1 0 6.31 15.66 2.36 15.66 11.85 0 3.95-3.18 7.35-10.01 7.35-3.96.01-7.84-1.32-9.9-3.24zM769.85 170.77v8.94h-3.66v-9.01l-10.27-16.84h3.95l8.27 13.63 8.31-13.63h3.66l-10.26 16.91zM783.51 176.75l1.37-2.88c1.92 1.74 5.21 2.99 8.53 2.99 4.47 0 6.39-1.74 6.39-3.99 0-6.31-15.66-2.33-15.66-11.93 0-3.99 3.1-7.39 9.9-7.39 3.03 0 6.17.81 8.31 2.29l-1.22 2.95c-2.25-1.44-4.8-2.1-7.09-2.1-4.39 0-6.28 1.85-6.28 4.1 0 6.31 15.66 2.36 15.66 11.85 0 3.95-3.18 7.35-10.01 7.35-3.95.01-7.83-1.32-9.9-3.24zM816.16 157.07h-8.86v-3.21h21.38v3.21h-8.86v22.64h-3.66v-22.64zM854.05 176.49v3.21h-18.76v-25.85h18.24v3.21h-14.55V165h12.96v3.14h-12.96v8.35h15.07zM886.58 179.7l-.04-18.83-9.34 15.69h-1.7l-9.34-15.58v18.72h-3.55v-25.85h3.03l10.78 18.17 10.64-18.17h3.03l.04 25.85h-3.55z" class="st3"/></svg>